<mxfile host="app.diagrams.net" modified="2021-10-24T13:28:22.091Z" agent="5.0 (Macintosh; Intel Mac OS X 10_15_7) AppleWebKit/537.36 (KHTML, like Gecko) Chrome/94.0.4606.81 Safari/537.36" etag="4GR2k6QTKMKbm-0SBHyh" version="15.3.5" type="github">
  <diagram id="XHEjoqWH6ZBnml4pUQ98" name="Page-1">
    <mxGraphModel dx="1188" dy="641" grid="1" gridSize="10" guides="1" tooltips="1" connect="1" arrows="1" fold="1" page="1" pageScale="1" pageWidth="827" pageHeight="1169" math="0" shadow="0">
      <root>
        <mxCell id="0" />
        <mxCell id="1" parent="0" />
        <mxCell id="Sy36meVbpXgF8Su_4n6l-7" style="edgeStyle=none;curved=1;rounded=0;orthogonalLoop=1;jettySize=auto;html=1;exitX=0.5;exitY=0;exitDx=0;exitDy=0;entryX=0;entryY=0.5;entryDx=0;entryDy=0;entryPerimeter=0;endArrow=classic;startSize=14;endSize=14;sourcePerimeterSpacing=8;targetPerimeterSpacing=8;endFill=1;" edge="1" parent="1" source="Sy36meVbpXgF8Su_4n6l-1" target="Sy36meVbpXgF8Su_4n6l-2">
          <mxGeometry relative="1" as="geometry" />
        </mxCell>
        <mxCell id="Sy36meVbpXgF8Su_4n6l-1" value="Work Station" style="rounded=0;whiteSpace=wrap;html=1;hachureGap=4;pointerEvents=0;" vertex="1" parent="1">
          <mxGeometry x="160" y="280" width="120" height="60" as="geometry" />
        </mxCell>
        <mxCell id="Sy36meVbpXgF8Su_4n6l-2" value="External Storage" style="shape=cylinder3;whiteSpace=wrap;html=1;boundedLbl=1;backgroundOutline=1;size=15;hachureGap=4;pointerEvents=0;" vertex="1" parent="1">
          <mxGeometry x="410" y="60" width="60" height="80" as="geometry" />
        </mxCell>
        <mxCell id="Sy36meVbpXgF8Su_4n6l-6" style="edgeStyle=none;curved=1;rounded=0;orthogonalLoop=1;jettySize=auto;html=1;exitX=0.5;exitY=0;exitDx=0;exitDy=0;entryX=1;entryY=0.5;entryDx=0;entryDy=0;entryPerimeter=0;endArrow=classic;startSize=14;endSize=14;sourcePerimeterSpacing=8;targetPerimeterSpacing=8;endFill=1;" edge="1" parent="1" source="Sy36meVbpXgF8Su_4n6l-4" target="Sy36meVbpXgF8Su_4n6l-2">
          <mxGeometry relative="1" as="geometry" />
        </mxCell>
        <mxCell id="Sy36meVbpXgF8Su_4n6l-3" value="Windows/Linux server" style="rounded=0;whiteSpace=wrap;html=1;hachureGap=4;pointerEvents=0;" vertex="1" parent="1">
          <mxGeometry x="507" y="350" width="120" height="60" as="geometry" />
        </mxCell>
        <mxCell id="Sy36meVbpXgF8Su_4n6l-4" value="" style="rounded=0;whiteSpace=wrap;html=1;hachureGap=4;pointerEvents=0;fillColor=none;dashed=1;" vertex="1" parent="1">
          <mxGeometry x="414" y="230" width="306" height="280" as="geometry" />
        </mxCell>
        <mxCell id="Sy36meVbpXgF8Su_4n6l-5" value="Client Env" style="text;html=1;strokeColor=none;fillColor=none;align=center;verticalAlign=middle;whiteSpace=wrap;rounded=0;dashed=1;hachureGap=4;pointerEvents=0;" vertex="1" parent="1">
          <mxGeometry x="420" y="240" width="70" height="20" as="geometry" />
        </mxCell>
      </root>
    </mxGraphModel>
  </diagram>
</mxfile>
